<svg width="398" height="306" viewBox="0 0 398 306" fill="none" xmlns="http://www.w3.org/2000/svg">
<g clip-path="url(#clip0_1303_23329)">
<path d="M248.558 286.455C248.558 286.455 207.87 242.4 104.145 281.77C12.0263 316.736 -14.0843 220.563 1.00289 181.106C20.5467 129.994 108.748 106.453 86.9237 64.5925C65.0995 22.7321 191.309 -7.58797 228.752 53.7305C275.33 130.009 313.344 86.176 353.254 95.7213C381.898 102.572 418.867 172.11 362.904 203.88C315.814 230.616 329.501 246.5 333.588 260.651C339.482 281.059 290.691 320.958 248.558 286.455Z" fill="#FFF9EB"/>
<path fillRule="evenodd" clip-rule="evenodd" d="M151.94 76.1631C152.899 65.1643 162.146 56.5253 173.396 56.5253C184.243 56.5253 193.229 64.5582 194.717 74.9945C194.788 74.9929 194.859 74.9929 194.932 74.9929C203.066 74.9929 209.669 81.5922 209.669 89.722C209.669 97.8519 203.066 104.451 194.932 104.451H142.226C135.218 104.451 129.527 98.7635 129.527 91.7586C129.527 84.8635 135.038 79.2469 141.893 79.0692C142.944 76.6706 145.341 74.9945 148.125 74.9945C149.54 74.9929 150.852 75.4244 151.94 76.1631Z" fill="#FFF3E2"/>
<path fillRule="evenodd" clip-rule="evenodd" d="M194.814 75.0155C194.814 75.0155 205.336 78.2432 205.336 88.7474C205.336 99.2516 194.002 104.45 194.002 104.45C194.002 104.45 198.001 104.689 202.228 102.416C205.712 100.543 209.554 96.7431 209.67 91.6163C209.926 80.2668 202.283 75.6168 194.814 75.0155Z" fill="#FAEAD4"/>
<path fillRule="evenodd" clip-rule="evenodd" d="M151.505 75.2919C152.867 64.4208 162.155 56 173.396 56C184.353 56 193.454 63.999 195.168 74.4692C203.482 74.5937 210.194 81.3804 210.194 89.7221C210.194 98.1413 203.355 104.977 194.932 104.977H142.226C134.927 104.977 129 99.0528 129 91.757C129 84.6857 134.566 78.9059 141.552 78.5552C142.748 76.134 145.244 74.4676 148.125 74.4676C149.345 74.4676 150.494 74.765 151.505 75.2919ZM151.644 76.5979C151.799 76.7029 151.998 76.7175 152.166 76.6383C152.335 76.5591 152.448 76.3942 152.464 76.21C153.4 65.4795 162.422 57.0522 173.396 57.0522C183.979 57.0522 192.746 64.8895 194.196 75.0689C194.233 75.3307 194.46 75.5247 194.725 75.5214C194.795 75.5198 194.864 75.5198 194.934 75.5198C202.777 75.5198 209.143 81.8831 209.143 89.7221C209.143 97.561 202.777 103.924 194.934 103.924H142.228V104.45V103.924C135.509 103.924 130.054 98.4726 130.054 91.757C130.054 85.148 135.337 79.7625 141.908 79.5928C142.111 79.588 142.294 79.4652 142.375 79.2777C143.345 77.065 145.556 75.5182 148.125 75.5182C149.43 75.5182 150.641 75.9174 151.644 76.5979Z" fill="#BFD4D6"/>
<path fillRule="evenodd" clip-rule="evenodd" d="M210.628 122.869C212.525 101.112 230.816 84.0231 253.069 84.0231C274.528 84.0231 292.301 99.9127 295.244 120.556C295.385 120.554 295.529 120.553 295.671 120.553C311.76 120.553 324.821 133.607 324.821 149.688C324.821 165.768 311.76 178.823 295.671 178.823H191.414C177.549 178.823 166.291 167.572 166.291 153.714C166.291 140.076 177.193 128.962 190.751 128.613C192.831 123.871 197.57 120.553 203.08 120.553C205.879 120.553 208.476 121.408 210.628 122.869Z" fill="#FFF3E2"/>
<path fillRule="evenodd" clip-rule="evenodd" d="M295.246 120.556C295.246 120.556 315.99 127.991 315.99 149.688C315.99 171.384 295.246 178.823 295.246 178.823C295.246 178.823 319.978 179.341 324.822 152.891C325.374 149.882 324.567 143.593 322.01 137.557C318.616 129.547 311.591 121.763 295.246 120.556Z" fill="#FAEAD4"/>
<path fillRule="evenodd" clip-rule="evenodd" d="M210.188 121.967C212.507 100.351 230.836 83.4978 253.071 83.4978C274.636 83.4978 292.524 99.3502 295.7 120.027C312.065 120.04 325.35 133.326 325.35 149.689C325.35 166.059 312.052 179.35 295.673 179.35H191.416V178.824V179.35C177.26 179.35 165.767 167.863 165.767 153.715C165.767 139.903 176.721 128.627 190.41 128.099C192.637 123.333 197.477 120.027 203.083 120.027C205.677 120.027 208.106 120.735 210.188 121.967ZM210.334 123.303C210.489 123.407 210.687 123.423 210.856 123.344C211.025 123.265 211.138 123.1 211.154 122.916C213.028 101.427 231.093 84.55 253.071 84.55C274.264 84.55 291.818 100.244 294.725 120.632C294.762 120.894 294.989 121.088 295.254 121.083C295.393 121.081 295.534 121.079 295.674 121.079C311.473 121.079 324.299 133.898 324.299 149.689C324.299 165.479 311.473 178.297 295.674 178.297H191.417V178.823V178.297C177.842 178.297 166.821 167.282 166.821 153.714C166.821 140.362 177.496 129.481 190.77 129.138C190.974 129.133 191.157 129.011 191.238 128.823C193.237 124.265 197.792 121.078 203.085 121.078C205.771 121.079 208.266 121.901 210.334 123.303Z" fill="#BFD4D6"/>
<path fillRule="evenodd" clip-rule="evenodd" d="M48.7931 256.507H368.526V259.734H48.7931V256.507Z" fill="#FFB367"/>
<path fillRule="evenodd" clip-rule="evenodd" d="M48.7931 255.982C48.5021 255.982 48.2676 256.218 48.2676 256.507V259.733C48.2676 260.024 48.5037 260.259 48.7931 260.259H368.526C368.817 260.259 369.052 260.023 369.052 259.733V256.507C369.052 256.216 368.815 255.982 368.526 255.982H48.7931ZM49.3187 257.033V259.207H367.999V257.033H49.3187Z" fill="#0B5306"/>
<path fillRule="evenodd" clip-rule="evenodd" d="M65.5786 81.1218L62.815 83.884L58.6057 71.7409L70.7549 75.9481L67.9897 78.7103L75.0838 85.7993L72.6711 88.2108L65.5786 81.1218Z" fill="#7CC178"/>
<path fillRule="evenodd" clip-rule="evenodd" d="M59.1022 72.4602L69.5308 77.2056L70.7937 75.9336L58.9534 72.0755L59.1022 72.4602Z" fill="#7CC178"/>
<path fillRule="evenodd" clip-rule="evenodd" d="M67.3057 78.6538C67.1844 78.775 67.1812 78.9706 67.296 79.0966C68.4781 80.3897 74.34 86.2454 74.34 86.2454L75.0839 85.6264L67.9946 77.9652C67.993 77.9636 67.5725 78.3855 67.3057 78.6538Z" fill="#7CC178"/>
<path fillRule="evenodd" clip-rule="evenodd" d="M65.5786 81.8653L63.1869 84.2558C63.0591 84.3835 62.8748 84.4368 62.6985 84.3964C62.5223 84.356 62.3783 84.2267 62.3185 84.0554L58.1092 71.9123C58.0429 71.7232 58.0914 71.5114 58.2337 71.3692C58.376 71.227 58.5879 71.1785 58.7787 71.2447L70.9263 75.4519C71.0977 75.5101 71.2254 75.6556 71.2675 75.8317C71.3079 76.0079 71.2545 76.1922 71.1268 76.3199L68.7351 78.7103L75.4557 85.4276C75.6611 85.6329 75.6611 85.9658 75.4557 86.1711L73.043 88.5826C72.8377 88.7879 72.5046 88.7879 72.2992 88.5826L65.5786 81.8653ZM69.7895 76.1712L59.4579 72.5927L63.0381 82.9175L65.205 80.7501C65.4104 80.5448 65.7435 80.5448 65.9505 80.7501L72.6711 87.4673L74.34 85.7993L67.6193 79.0821C67.414 78.8768 67.414 78.5439 67.6193 78.3386L69.7895 76.1712Z" fill="#054700"/>
<path fillRule="evenodd" clip-rule="evenodd" d="M55.4912 69.0337L56.8802 70.6031C57.0727 70.8197 57.4058 70.8407 57.6225 70.6484C57.8392 70.456 57.8586 70.1231 57.6678 69.9065L56.2771 68.3371C56.0863 68.1189 55.7515 68.0995 55.5348 68.2918C55.3181 68.4858 55.2987 68.8171 55.4912 69.0337Z" fill="#054700"/>
<path fillRule="evenodd" clip-rule="evenodd" d="M57.8861 67.5467L58.3049 69.5994C58.3631 69.8839 58.6412 70.0665 58.9258 70.01C59.2105 69.9518 59.3932 69.6738 59.3366 69.3893L58.9178 67.3366C58.8595 67.0521 58.5814 66.8695 58.2968 66.9261C58.0122 66.9842 57.8278 67.2639 57.8861 67.5467Z" fill="#054700"/>
<path fillRule="evenodd" clip-rule="evenodd" d="M54.1781 71.5293L56.1672 72.1935C56.4421 72.2857 56.7412 72.137 56.8318 71.8606C56.924 71.5858 56.7752 71.2868 56.5003 71.1963L54.5113 70.532C54.2364 70.4399 53.9372 70.5886 53.8466 70.865C53.7545 71.1398 53.9032 71.4388 54.1781 71.5293Z" fill="#054700"/>
<path fillRule="evenodd" clip-rule="evenodd" d="M60.6836 67.1426L60.019 69.129C59.9268 69.4038 60.0756 69.7028 60.3521 69.795C60.627 69.8871 60.9262 69.7384 61.0184 69.462L61.683 67.4756C61.7752 67.2008 61.6264 66.9018 61.3499 66.8097C61.0734 66.7192 60.7758 66.8662 60.6836 67.1426Z" fill="#054700"/>
<path fillRule="evenodd" clip-rule="evenodd" d="M53.9501 74.3173L56.0038 73.8987C56.2884 73.8405 56.4711 73.5625 56.4145 73.2796C56.3563 72.9952 56.0782 72.8109 55.7936 72.8691L53.7399 73.2861C53.4553 73.3443 53.2725 73.6223 53.3291 73.9067C53.3874 74.1912 53.6639 74.3755 53.9501 74.3173Z" fill="#054700"/>
<path fillRule="evenodd" clip-rule="evenodd" d="M317.786 74.1686L316.236 77.3656L319.258 75.717L317.786 74.1686Z" fill="#1E6D00"/>
<path fillRule="evenodd" clip-rule="evenodd" d="M329.176 60.7809L317.786 74.1314L315.621 77.9184L314.471 71.025L329.176 60.7809Z" fill="#1E6D00"/>
<path fillRule="evenodd" clip-rule="evenodd" d="M329.176 60.7809L314.845 73.2668L314.471 70.8439L329.176 60.7809Z" fill="#1E6D00"/>
<path fillRule="evenodd" clip-rule="evenodd" d="M330.738 59.0387C330.796 59.0387 314.531 71.0249 314.531 71.0249L309.069 67.5354C309.067 67.5354 330.678 59.0387 330.738 59.0387Z" fill="#A8D8A4"/>
<path fillRule="evenodd" clip-rule="evenodd" d="M330.408 60.2153L321.834 77.9184L317.786 73.8131L330.408 60.2153Z" fill="#A8D8A4"/>
<path fillRule="evenodd" clip-rule="evenodd" d="M330.408 60.2153L320.477 76.5429L321.842 77.9184L330.408 60.2153Z" fill="#ADD1FB"/>
<path fillRule="evenodd" clip-rule="evenodd" d="M331.231 58.1044C331.292 58.0883 331.354 58.0834 331.414 58.0882L331.425 58.0899C331.485 58.0979 331.545 58.1141 331.601 58.1432L331.624 58.1545L331.629 58.1561C331.666 58.1788 331.703 58.2046 331.734 58.2353L331.745 58.2466L331.763 58.266L331.777 58.2822C331.805 58.3178 331.828 58.3566 331.847 58.3953L331.849 58.4002C331.874 58.4568 331.889 58.5166 331.892 58.5764L331.894 58.6006V58.6184C331.894 58.6717 331.884 58.7251 331.868 58.7784L331.86 58.801L331.857 58.8091C331.852 58.822 331.845 58.835 331.839 58.8479L322.216 78.5229C322.14 78.6797 321.989 78.788 321.816 78.8138C321.643 78.8381 321.47 78.775 321.352 78.6457L319.218 76.2859L315.881 78.7184L315.823 78.7556L315.731 78.7944L315.632 78.8154L315.555 78.8187L315.466 78.8073L315.432 78.7993L315.353 78.7702L315.306 78.7459L315.238 78.6991L315.176 78.6392L315.134 78.5859L315.087 78.497L315.057 78.4L315.05 78.3661L314.028 71.4193L308.904 68.2708C308.736 68.1674 308.64 67.9783 308.655 67.7811C308.671 67.5839 308.795 67.4126 308.978 67.3366L331.161 58.1238C331.174 58.1173 331.187 58.1125 331.2 58.1076L331.224 58.0996L331.231 58.1044ZM318.543 73.9714L318.551 73.9795L321.612 77.364L329.177 61.8978L318.543 73.9714ZM317.521 73.5431L327.778 61.893L315.062 71.2076L315.857 76.6157L317.372 73.7177C317.41 73.6482 317.46 73.59 317.521 73.5431ZM317.083 76.5429L318.49 75.5166L317.947 74.8895L317.083 76.5429ZM310.332 67.9185L314.378 70.4043L327.516 60.7826L310.332 67.9185Z" fill="#054700"/>
<path fillRule="evenodd" clip-rule="evenodd" d="M278.79 100.391C278.257 100.537 277.71 100.676 277.155 100.81C276.874 100.878 276.699 101.162 276.767 101.443C276.835 101.725 277.118 101.899 277.401 101.831C277.967 101.695 278.522 101.553 279.067 101.406C279.347 101.33 279.511 101.041 279.435 100.761C279.359 100.48 279.07 100.314 278.79 100.391ZM282.76 99.1385C282.121 99.3697 281.465 99.5927 280.789 99.8044C280.512 99.8917 280.359 100.187 280.446 100.464C280.533 100.742 280.829 100.895 281.106 100.808C281.796 100.59 282.468 100.364 283.119 100.126C283.393 100.027 283.533 99.7252 283.435 99.4521C283.336 99.1806 283.035 99.0383 282.76 99.1385ZM286.598 97.5416C285.985 97.8326 285.354 98.1138 284.699 98.3853C284.431 98.4969 284.303 98.8056 284.415 99.0723C284.526 99.3406 284.835 99.4682 285.102 99.3567C285.771 99.0787 286.421 98.7894 287.047 98.492C287.309 98.3676 287.421 98.054 287.296 97.7922C287.173 97.5287 286.86 97.4172 286.598 97.5416ZM290.241 95.5617C289.667 95.9173 289.07 96.2648 288.449 96.601C288.194 96.74 288.098 97.06 288.237 97.3137C288.375 97.5691 288.695 97.6645 288.95 97.5255C289.591 97.178 290.207 96.8208 290.796 96.4539C291.043 96.302 291.119 95.9771 290.965 95.7298C290.812 95.4841 290.487 95.4082 290.241 95.5617ZM293.604 93.1599C293.087 93.585 292.54 94.0052 291.965 94.4158C291.729 94.5839 291.674 94.9136 291.842 95.1479C292.01 95.3839 292.34 95.4389 292.576 95.2708C293.173 94.8457 293.739 94.4125 294.274 93.9697C294.499 93.7854 294.531 93.4541 294.345 93.231C294.161 93.008 293.828 92.974 293.604 93.1599ZM296.569 90.3023C296.129 90.8034 295.655 91.2996 295.146 91.7893C294.937 91.9913 294.93 92.3227 295.131 92.5328C295.332 92.7413 295.665 92.7478 295.875 92.5473C296.407 92.0366 296.9 91.5194 297.359 90.9973C297.55 90.7791 297.529 90.4462 297.311 90.2555C297.093 90.0631 296.761 90.0841 296.569 90.3023ZM298.965 86.9809C298.635 87.5547 298.265 88.1284 297.851 88.699C297.681 88.9333 297.735 89.2631 297.969 89.4328C298.205 89.6025 298.533 89.5508 298.705 89.3148C299.14 88.7135 299.531 88.109 299.877 87.5045C300.023 87.254 299.935 86.9308 299.683 86.7869C299.431 86.6415 299.109 86.7287 298.965 86.9809ZM306.781 86.3166C306.156 86.4119 305.487 86.4588 304.767 86.454C304.476 86.4524 304.238 86.6851 304.237 86.976C304.235 87.267 304.468 87.5046 304.759 87.5062C305.537 87.511 306.263 87.4593 306.939 87.3575C307.227 87.3138 307.424 87.0455 307.38 86.7594C307.337 86.4718 307.068 86.2746 306.781 86.3166ZM302.736 86.3069C302.097 86.2212 301.425 86.0968 300.72 85.9303C300.438 85.864 300.154 86.0386 300.087 86.3214C300.019 86.6027 300.196 86.8871 300.477 86.9534C301.219 87.1296 301.923 87.2589 302.596 87.3494C302.883 87.3866 303.147 87.1861 303.187 86.8984C303.226 86.6091 303.024 86.3441 302.736 86.3069ZM310.513 84.9751C309.979 85.308 309.386 85.6006 308.723 85.8365C308.449 85.9335 308.305 86.2358 308.403 86.5089C308.501 86.7821 308.802 86.9259 309.075 86.8273C309.814 86.5639 310.476 86.2374 311.069 85.8673C311.315 85.7137 311.391 85.3888 311.237 85.1432C311.082 84.8959 310.759 84.8215 310.513 84.9751ZM298.736 85.3759C298.535 85.3113 298.333 85.2434 298.127 85.1723C297.662 85.0122 297.219 84.8458 296.795 84.6728C296.527 84.5629 296.219 84.6922 296.111 84.9621C296.001 85.2304 296.13 85.5375 296.399 85.6458C296.84 85.8252 297.301 85.9998 297.785 86.1663C297.996 86.239 298.207 86.3085 298.414 86.3748C298.689 86.4637 298.986 86.3101 299.075 86.0354C299.162 85.7606 299.01 85.4632 298.736 85.3759ZM300.548 83.2408C300.375 83.8712 300.152 84.5112 299.876 85.1561C299.762 85.4228 299.887 85.7315 300.154 85.8463C300.421 85.961 300.729 85.8366 300.844 85.5699C301.139 84.8797 301.378 84.1944 301.562 83.5204C301.638 83.2392 301.475 82.9499 301.194 82.8739C300.915 82.7963 300.626 82.9612 300.548 83.2408ZM294.932 83.8114C294.288 83.4736 293.71 83.1212 293.19 82.7592C292.951 82.5927 292.623 82.6509 292.458 82.8885C292.291 83.1261 292.35 83.4542 292.587 83.6206C293.142 84.0069 293.758 84.3835 294.444 84.7423C294.701 84.8781 295.018 84.7795 295.154 84.5209C295.288 84.2655 295.189 83.9471 294.932 83.8114ZM313.338 82.208C312.99 82.7252 312.571 83.2505 312.068 83.7451C311.861 83.9487 311.86 84.2817 312.062 84.4886C312.266 84.6955 312.599 84.6971 312.806 84.495C313.364 83.9455 313.828 83.3669 314.211 82.7947C314.373 82.5539 314.31 82.2274 314.069 82.0658C313.828 81.9025 313.501 81.9672 313.338 82.208ZM291.64 81.4775C291.13 80.9732 290.72 80.4576 290.398 79.9404C290.244 79.6947 289.921 79.6187 289.673 79.7707C289.428 79.9242 289.35 80.2475 289.504 80.4948C289.864 81.0766 290.327 81.6569 290.899 82.2226C291.106 82.4262 291.439 82.4262 291.643 82.2193C291.847 82.0157 291.847 81.6811 291.64 81.4775ZM300.974 79.2567C301.022 79.9 301.009 80.5691 300.933 81.2593C300.901 81.547 301.109 81.8072 301.397 81.8395C301.685 81.8718 301.945 81.6633 301.978 81.374C302.062 80.6176 302.076 79.8838 302.023 79.1775C302 78.8882 301.748 78.67 301.459 78.691C301.171 78.7152 300.953 78.969 300.974 79.2567ZM314.919 78.5698C314.919 78.5698 314.772 79.3634 314.302 80.4479C314.185 80.7146 314.308 81.0233 314.573 81.1396C314.84 81.256 315.149 81.1348 315.265 80.8681C315.794 79.6511 315.954 78.7573 315.954 78.7573C316.006 78.4712 315.815 78.198 315.531 78.1463C315.244 78.0946 314.97 78.2837 314.919 78.5698ZM289.638 78.1689C289.478 77.5176 289.452 76.8824 289.541 76.2843C289.583 75.9966 289.384 75.73 289.096 75.6879C288.808 75.6459 288.541 75.8447 288.498 76.1324C288.391 76.8581 288.422 77.6291 288.616 78.4195C288.684 78.7007 288.97 78.8752 289.251 78.8057C289.533 78.7346 289.707 78.4502 289.638 78.1689ZM299.812 75.5182C300.15 76.0662 300.419 76.6658 300.615 77.3075C300.699 77.5855 300.993 77.7422 301.271 77.6582C301.549 77.5741 301.706 77.28 301.622 77.0036C301.399 76.2714 301.093 75.5894 300.708 74.9655C300.556 74.7182 300.231 74.6422 299.984 74.7958C299.738 74.9461 299.66 75.2709 299.812 75.5182ZM290.183 74.5226C290.516 73.9876 290.956 73.5254 291.475 73.1617C291.712 72.9952 291.771 72.6671 291.604 72.4295C291.438 72.1919 291.109 72.1337 290.872 72.3002C290.234 72.7463 289.696 73.3136 289.288 73.9682C289.135 74.2155 289.211 74.5388 289.457 74.6923C289.706 74.8459 290.029 74.7699 290.183 74.5226ZM296.945 72.9354C297.188 73.055 297.432 73.1924 297.675 73.346C297.995 73.5496 298.292 73.7743 298.567 74.0216C298.782 74.2155 299.116 74.1977 299.31 73.9812C299.504 73.7662 299.486 73.4332 299.269 73.2393C298.951 72.9548 298.606 72.693 298.237 72.4586C297.961 72.2824 297.683 72.1273 297.408 71.9915C297.148 71.8638 296.832 71.9705 296.704 72.2307C296.577 72.4926 296.683 72.8077 296.945 72.9354ZM293.202 72.4053C293.797 72.2744 294.437 72.2469 295.102 72.3471C295.39 72.3907 295.657 72.1919 295.7 71.9042C295.744 71.6165 295.545 71.3499 295.257 71.3078C294.46 71.1882 293.69 71.2206 292.975 71.3789C292.691 71.442 292.513 71.7232 292.574 72.0061C292.639 72.2889 292.919 72.4683 293.202 72.4053Z" fill="#054700"/>
<path fillRule="evenodd" clip-rule="evenodd" d="M293.241 247.586H59.9591C59.9591 247.586 59.9591 248.515 59.9591 249.774C59.9591 253.491 62.975 256.506 66.6959 256.506C100.631 256.506 252.569 256.506 286.504 256.506C290.223 256.506 293.239 253.491 293.239 249.774C293.241 248.515 293.241 247.586 293.241 247.586Z" fill="#0B5306"/>
<path fillRule="evenodd" clip-rule="evenodd" d="M290.301 247.586C290.301 247.586 290.301 248.281 290.301 249.224C290.301 250.581 289.762 251.882 288.803 252.838C287.844 253.797 286.544 254.337 285.188 254.337C251.415 254.337 61.8108 254.337 61.8108 254.337C61.8108 254.337 63.4796 256.506 66.4534 256.506C69.1313 256.506 251.183 256.506 287.12 256.506C290.501 256.506 293.242 253.766 293.242 250.387C293.242 248.828 293.242 247.584 293.242 247.584H290.301V247.586Z" fill="#054700"/>
<path fillRule="evenodd" clip-rule="evenodd" d="M285.65 99.7268C285.65 99.6298 285.613 99.5377 285.543 99.4698C285.475 99.4019 285.382 99.3631 285.286 99.3631C275.645 99.3631 77.5547 99.3631 67.9136 99.3631C67.8165 99.3631 67.7244 99.4003 67.6565 99.4698C67.5885 99.5377 67.5497 99.6314 67.5497 99.7268C67.5497 107.8 67.5497 247.584 67.5497 247.584H285.652C285.65 247.586 285.65 107.802 285.65 99.7268Z" fill="#7CC178"/>
<path fillRule="evenodd" clip-rule="evenodd" d="M283.119 99.3631C283.119 99.3631 283.119 225.336 283.119 242.552C283.119 243.066 282.915 243.561 282.552 243.925C282.188 244.288 281.693 244.492 281.179 244.492H67.5433V247.584H285.65V99.3631H283.119Z" fill="#1E6D00"/>
<path fillRule="evenodd" clip-rule="evenodd" d="M278.962 106.132H74.2381V240.818H278.962V106.132Z" fill="white"/>
<path fillRule="evenodd" clip-rule="evenodd" d="M266.509 106.132C266.509 106.132 266.509 159.225 266.509 192.639C266.509 207.295 254.621 219.175 239.959 219.175C187.208 219.175 74.2381 219.175 74.2381 219.175V240.818H278.962V106.132H266.509Z" fill="#D9D9D9"/>
<path fillRule="evenodd" clip-rule="evenodd" d="M67.0225 247.06V99.7268C67.0225 99.4908 67.1163 99.2646 67.2829 99.0981C67.4495 98.9316 67.6758 98.8379 67.9119 98.8379C77.553 98.8379 275.645 98.8379 285.285 98.8379C285.521 98.8379 285.747 98.9316 285.914 99.0981C286.08 99.2646 286.174 99.4908 286.174 99.7268V247.059H293.238C293.529 247.059 293.763 247.295 293.763 247.584C293.763 247.584 293.763 248.513 293.763 249.772C293.763 253.781 290.511 257.029 286.502 257.029C252.568 257.029 100.627 257.029 66.6943 257.029C62.6839 257.029 59.4319 253.779 59.4319 249.772C59.4319 248.513 59.4319 247.584 59.4319 247.584C59.4319 247.293 59.668 247.059 59.9575 247.059H67.0225V247.06ZM292.714 248.111H60.4863V249.774C60.4863 253.202 63.266 255.981 66.6959 255.981C100.631 255.981 252.569 255.981 286.504 255.981C289.934 255.981 292.714 253.202 292.714 249.774V248.111ZM68.0753 247.06H285.125V99.8901H68.0753V247.06ZM279.489 106.132C279.489 105.841 279.253 105.607 278.963 105.607H74.2396C73.9485 105.607 73.7141 105.843 73.7141 106.132V240.818C73.7141 241.109 73.9485 241.344 74.2396 241.344H278.963C279.255 241.344 279.489 241.108 279.489 240.818V106.132ZM74.7636 106.657V240.293H278.436V106.657H74.7636Z" fill="#0B5306"/>
<path fillRule="evenodd" clip-rule="evenodd" d="M367.766 240.104C367.766 237.975 366.04 236.252 363.912 236.252C340.262 236.252 215.14 236.252 194.915 236.252C193.39 236.252 192.153 237.487 192.153 239.013C192.153 239.784 192.153 240.621 192.153 241.394C192.153 242.918 193.389 244.154 194.915 244.154C215.14 244.154 340.262 244.154 363.912 244.154C366.042 244.154 367.766 242.43 367.766 240.303C367.766 240.235 367.766 240.168 367.766 240.104Z" fill="#FFB367"/>
<path fillRule="evenodd" clip-rule="evenodd" d="M347.963 242.454L362.444 242.446C362.444 242.446 365.502 242.434 365.502 240.333C365.502 237.065 363.649 236.251 363.649 236.251C368.096 236.957 367.768 239.874 367.768 239.874C367.768 239.874 367.768 240.361 367.768 241.004C367.768 241.838 367.436 242.638 366.846 243.228C366.254 243.82 365.454 244.149 364.619 244.149H195.921L193.974 243.422L192.464 242.452H347.963V242.454Z" fill="#D79859"/>
<path fillRule="evenodd" clip-rule="evenodd" d="M294.043 173.082H291.454V236.252H294.043V173.082Z" fill="#FFB367"/>
<path fillRule="evenodd" clip-rule="evenodd" d="M291.454 236.252H252.671C252.671 236.252 250.608 218.24 230.38 217.555C221.296 217.248 215.176 222.065 211.809 226.884C208.539 231.567 207.892 236.252 207.892 236.252H192.042V170.318H291.452V236.252H291.454Z" fill="#FFE2BC"/>
<path fillRule="evenodd" clip-rule="evenodd" d="M283.986 170.251C283.986 170.251 283.986 198.569 283.986 215.157C283.986 221.633 278.732 226.884 272.253 226.884C247.443 226.884 191.92 226.884 191.92 226.884V236.252H291.473V170.253H283.986V170.251Z" fill="#E5C69C"/>
<path fillRule="evenodd" clip-rule="evenodd" d="M294.043 236.252V179.799H334.976L339.622 202.999L364.805 212.152V236.254H347.598C347.598 236.254 344.478 224.153 331.943 224.153C319.407 224.153 316.287 236.254 316.287 236.254H294.043V236.252Z" fill="#FFE277"/>
<path fillRule="evenodd" clip-rule="evenodd" d="M295.32 179.941H294.107V236.207H295.32V179.941Z" fill="#DCBE51"/>
<path fillRule="evenodd" clip-rule="evenodd" d="M307.523 207.646C307.523 207.017 307.149 206.508 306.69 206.508C305.235 206.508 302.246 206.508 300.789 206.508C300.329 206.508 299.955 207.017 299.955 207.646C299.955 207.647 299.955 207.647 299.955 207.647C299.955 208.275 300.329 208.785 300.789 208.785C302.245 208.785 305.233 208.785 306.69 208.785C307.149 208.785 307.523 208.276 307.523 207.647C307.523 207.647 307.523 207.647 307.523 207.646Z" fill="#DCBE51"/>
<path fillRule="evenodd" clip-rule="evenodd" d="M306.626 207.036C306.626 206.626 306.292 206.291 305.88 206.291C304.58 206.291 301.912 206.291 300.611 206.291C300.201 206.291 299.866 206.624 299.866 207.036V207.038C299.866 207.449 300.199 207.783 300.611 207.783C301.912 207.783 304.58 207.783 305.88 207.783C306.292 207.783 306.626 207.449 306.626 207.036Z" fill="#FFB367"/>
<path fillRule="evenodd" clip-rule="evenodd" d="M330.945 183.835L333.38 203.211V217.545H334.975V203.211L331.422 183.835H330.945Z" fill="#DCBE51"/>
<path fillRule="evenodd" clip-rule="evenodd" d="M339.62 202.997C339.62 202.997 355.238 210.974 360.295 213.556C361.252 214.045 361.855 215.029 361.855 216.104C361.855 220.793 361.855 233.275 361.855 233.275H353.725C353.725 233.275 354.315 235.541 354.415 236.252H364.805C364.805 236.252 364.805 216.833 364.805 212.863C364.805 212.441 364.54 212.063 364.142 211.919C360.166 210.471 339.62 202.997 339.62 202.997Z" fill="#DCBE51"/>
<path fillRule="evenodd" clip-rule="evenodd" d="M354.439 236.252C354.439 236.252 351.631 219.459 332.517 217.442C327.96 216.962 323.577 218.932 320.6 220.456C311.089 225.325 309.539 236.252 309.539 236.252H316.289C316.289 236.252 318.939 224.208 332.518 224.208C337.762 224.208 341.09 226.639 343.34 228.843C346.917 232.349 347.598 236.252 347.598 236.252H354.439Z" fill="#FFB367"/>
<path fillRule="evenodd" clip-rule="evenodd" d="M329.682 217.545C329.682 217.545 347.586 218.525 351.629 236.252H354.438C354.44 236.252 350.793 216.454 329.682 217.545Z" fill="#D79859"/>
<path fillRule="evenodd" clip-rule="evenodd" d="M252.993 236.252C252.993 236.252 250.184 219.459 231.07 217.442C226.512 216.962 222.131 218.932 219.154 220.456C209.642 225.325 208.093 236.252 208.093 236.252H214.841C214.841 236.252 217.491 224.208 231.07 224.208C236.314 224.208 239.642 226.639 241.892 228.843C245.469 232.349 246.149 236.252 246.149 236.252H252.993Z" fill="#FFB367"/>
<path fillRule="evenodd" clip-rule="evenodd" d="M228.235 217.974C228.235 217.974 246.138 218.952 250.182 236.679H252.993C252.993 236.679 249.346 216.883 228.235 217.974Z" fill="#D79859"/>
<path fillRule="evenodd" clip-rule="evenodd" d="M299.901 203.211V185.538H329.371L331.943 203.211H299.901Z" fill="white"/>
<path fillRule="evenodd" clip-rule="evenodd" d="M326.438 185.538C326.438 185.538 327.887 194.407 328.566 198.556C328.652 199.078 328.505 199.611 328.162 200.014C327.819 200.416 327.316 200.649 326.787 200.649C320.099 200.649 299.903 200.649 299.903 200.649V203.211H331.944L329.373 185.538H326.438Z" fill="#D9D9D9"/>
<path fillRule="evenodd" clip-rule="evenodd" d="M331.943 224.208C340.848 224.208 348.078 231.434 348.078 240.335C348.078 249.236 340.848 256.464 331.943 256.464C323.036 256.464 315.806 249.237 315.806 240.335C315.807 231.432 323.036 224.208 331.943 224.208Z" fill="#393E46"/>
<path fillRule="evenodd" clip-rule="evenodd" d="M343.075 228.664C346.157 231.602 348.078 235.746 348.078 240.333C348.078 249.234 340.848 256.462 331.943 256.462C325.835 256.462 320.516 253.065 317.777 248.057C320.673 250.82 324.594 252.515 328.909 252.515C337.814 252.515 345.044 245.289 345.044 236.386C345.046 233.59 344.331 230.957 343.075 228.664Z" fill="#272B30"/>
<path fillRule="evenodd" clip-rule="evenodd" d="M230.38 224.208C239.285 224.208 246.515 231.434 246.515 240.335C246.515 249.236 239.285 256.464 230.38 256.464C221.474 256.464 214.243 249.237 214.243 240.335C214.243 231.432 221.474 224.208 230.38 224.208Z" fill="#393E46"/>
<path fillRule="evenodd" clip-rule="evenodd" d="M241.694 228.664C244.775 231.602 246.698 235.746 246.698 240.333C246.698 249.234 239.468 256.462 230.561 256.462C224.454 256.462 219.136 253.065 216.395 248.057C219.291 250.82 223.213 252.515 227.529 252.515C236.434 252.515 243.664 245.289 243.664 236.386C243.664 233.59 242.949 230.957 241.694 228.664Z" fill="#272B30"/>
<path fillRule="evenodd" clip-rule="evenodd" d="M331.943 232.992C335.997 232.992 339.287 236.281 339.287 240.333C339.287 244.387 335.997 247.676 331.943 247.676C327.887 247.676 324.596 244.387 324.596 240.333C324.596 236.281 327.887 232.992 331.943 232.992Z" fill="#FFE2BC"/>
<path fillRule="evenodd" clip-rule="evenodd" d="M335.141 233.724C337.596 234.914 339.287 237.429 339.287 240.335C339.287 244.389 335.997 247.678 331.943 247.678C330.27 247.678 328.729 247.118 327.494 246.178C328.461 246.647 329.546 246.91 330.693 246.91C334.748 246.91 338.039 243.621 338.039 239.567C338.039 237.185 336.902 235.066 335.141 233.724Z" fill="#E5C69C"/>
<path fillRule="evenodd" clip-rule="evenodd" d="M230.38 232.992C234.434 232.992 237.724 236.281 237.724 240.333C237.724 244.387 234.434 247.676 230.38 247.676C226.324 247.676 223.033 244.387 223.033 240.333C223.033 236.281 226.324 232.992 230.38 232.992Z" fill="#FFE2BC"/>
<path fillRule="evenodd" clip-rule="evenodd" d="M230.38 236.871C232.291 236.871 233.843 238.423 233.843 240.333C233.843 242.245 232.291 243.797 230.38 243.797C228.467 243.797 226.914 242.245 226.914 240.333C226.914 238.423 228.467 236.871 230.38 236.871Z" fill="#E5C69C"/>
<path fillRule="evenodd" clip-rule="evenodd" d="M331.943 236.871C333.854 236.871 335.406 238.423 335.406 240.333C335.406 242.245 333.854 243.797 331.943 243.797C330.029 243.797 328.477 242.245 328.477 240.333C328.477 238.423 330.029 236.871 331.943 236.871Z" fill="#E5C69C"/>
<path fillRule="evenodd" clip-rule="evenodd" d="M333.257 237.277C334.349 237.859 335.093 239.011 335.093 240.333C335.093 242.245 333.54 243.797 331.629 243.797C330.767 243.797 329.978 243.482 329.371 242.96C329.856 243.218 330.411 243.365 331 243.365C332.911 243.365 334.464 241.814 334.464 239.903C334.464 238.853 333.996 237.912 333.257 237.277Z" fill="#D7B485"/>
<path fillRule="evenodd" clip-rule="evenodd" d="M231.702 237.277C232.795 237.859 233.539 239.011 233.539 240.333C233.539 242.245 231.987 243.797 230.075 243.797C229.214 243.797 228.424 243.482 227.818 242.96C228.303 243.218 228.858 243.365 229.446 243.365C231.358 243.365 232.91 241.814 232.91 239.903C232.909 238.853 232.441 237.912 231.702 237.277Z" fill="#D7B485"/>
<path fillRule="evenodd" clip-rule="evenodd" d="M233.559 233.724C236.012 234.914 237.705 237.429 237.705 240.335C237.705 244.389 234.413 247.678 230.358 247.678C228.686 247.678 227.145 247.118 225.91 246.178C226.877 246.647 227.964 246.91 229.11 246.91C233.164 246.91 236.455 243.621 236.455 239.567C236.457 237.185 235.32 235.066 233.559 233.724Z" fill="#E5C69C"/>
<path fillRule="evenodd" clip-rule="evenodd" d="M192.805 236.742H192.386C191.847 236.742 191.411 236.306 191.411 235.767C191.411 230.274 191.411 176.149 191.411 170.654C191.411 170.395 191.514 170.146 191.697 169.964C191.88 169.781 192.129 169.679 192.386 169.679C199.314 169.679 284.052 169.679 290.978 169.679C291.237 169.679 291.486 169.781 291.669 169.964C291.852 170.146 291.955 170.395 291.955 170.654V172.842H294.075C294.366 172.842 294.601 173.077 294.601 173.368V179.338H333.032C334.493 179.338 335.748 180.374 336.024 181.808C337.012 186.935 339.554 200.117 340.047 202.677C340.064 202.763 340.125 202.832 340.207 202.862C343.062 203.868 359.713 209.742 363.891 211.216C364.672 211.491 365.193 212.228 365.193 213.055V235.826C365.901 236.011 366.553 236.382 367.079 236.907C367.858 237.686 368.296 238.743 368.296 239.845C368.296 240.06 368.296 240.278 368.296 240.493C368.296 242.788 366.435 244.649 364.139 244.649H348.083C346.176 251.775 339.667 257.03 331.941 257.03C324.214 257.03 317.706 251.777 315.799 244.649H246.518C244.612 251.775 238.103 257.03 230.376 257.03C222.65 257.03 216.141 251.777 214.234 244.649H195.567C194.464 244.649 193.406 244.211 192.627 243.432C191.847 242.653 191.409 241.596 191.409 240.493C191.409 240.278 191.409 240.06 191.409 239.845C191.412 238.614 191.951 237.503 192.805 236.742ZM230.38 224.688C239.018 224.688 246.035 231.699 246.035 240.335C246.035 248.971 239.02 255.982 230.38 255.982C221.739 255.982 214.724 248.972 214.724 240.335C214.724 231.699 221.739 224.688 230.38 224.688ZM331.943 224.688C340.581 224.688 347.598 231.699 347.598 240.335C347.598 248.971 340.583 255.982 331.943 255.982C323.302 255.982 316.287 248.972 316.287 240.335C316.287 231.699 323.302 224.688 331.943 224.688ZM230.38 232.224C225.9 232.224 222.263 235.859 222.263 240.335C222.263 244.812 225.9 248.447 230.38 248.447C234.859 248.447 238.494 244.812 238.494 240.335C238.494 235.858 234.859 232.224 230.38 232.224ZM331.943 232.224C327.463 232.224 323.826 235.859 323.826 240.335C323.826 244.812 327.463 248.447 331.943 248.447C336.42 248.447 340.057 244.812 340.057 240.335C340.057 235.858 336.42 232.224 331.943 232.224ZM230.38 233.275C234.278 233.275 237.441 236.438 237.441 240.333C237.441 244.23 234.277 247.393 230.38 247.393C226.481 247.393 223.316 244.23 223.316 240.333C223.316 236.438 226.481 233.275 230.38 233.275ZM331.943 233.275C335.84 233.275 339.004 236.438 339.004 240.333C339.004 244.23 335.84 247.393 331.943 247.393C328.044 247.393 324.879 244.23 324.879 240.333C324.879 236.438 328.044 233.275 331.943 233.275ZM230.38 236.252C228.124 236.252 226.295 238.082 226.295 240.335C226.295 242.59 228.125 244.419 230.38 244.419C232.634 244.419 234.464 242.59 234.464 240.335C234.464 238.08 232.634 236.252 230.38 236.252ZM331.943 236.252C329.687 236.252 327.858 238.082 327.858 240.335C327.858 242.59 329.688 244.419 331.943 244.419C334.197 244.419 336.027 242.59 336.027 240.335C336.027 238.08 334.197 236.252 331.943 236.252ZM348.261 236.742C348.514 237.899 348.649 239.1 348.649 240.333C348.649 241.452 348.539 242.544 348.328 243.6H364.14C365.856 243.6 367.247 242.21 367.247 240.495C367.247 240.28 367.247 240.062 367.247 239.847C367.247 239.024 366.92 238.234 366.336 237.652C365.754 237.07 364.964 236.742 364.14 236.742H348.261ZM246.698 236.742C246.951 237.899 247.086 239.1 247.086 240.333C247.086 241.452 246.976 242.544 246.765 243.6H315.555C315.345 242.544 315.235 241.452 315.235 240.333C315.235 239.1 315.369 237.898 315.623 236.742H246.698ZM214.061 236.742H195.57C193.854 236.742 192.464 238.132 192.464 239.847C192.464 240.062 192.464 240.28 192.464 240.495C192.464 241.318 192.79 242.108 193.374 242.69C193.956 243.272 194.747 243.6 195.57 243.6H213.994C213.785 242.544 213.673 241.452 213.673 240.333C213.673 239.1 213.806 237.899 214.061 236.742ZM230.38 237.303C232.053 237.303 233.412 238.66 233.412 240.333C233.412 242.008 232.053 243.365 230.38 243.365C228.704 243.365 227.346 242.008 227.346 240.333C227.346 238.66 228.704 237.303 230.38 237.303ZM331.943 237.303C333.616 237.303 334.975 238.66 334.975 240.333C334.975 242.008 333.616 243.365 331.943 243.365C330.267 243.365 328.909 242.008 328.909 240.333C328.909 238.66 330.267 237.303 331.943 237.303ZM364.142 235.691V213.057C364.142 212.676 363.901 212.336 363.542 212.208C359.364 210.734 342.712 204.861 339.858 203.854C339.423 203.7 339.103 203.329 339.016 202.876C338.522 200.316 335.98 187.134 334.992 182.007C334.811 181.068 333.99 180.39 333.034 180.39H294.602V235.691H296.865V185.094C296.865 184.481 297.109 183.893 297.542 183.46C297.976 183.027 298.564 182.784 299.177 182.784C305.154 182.784 324.387 182.784 329.923 182.784C331.047 182.784 332.009 183.592 332.2 184.699C332.998 189.312 335.393 203.122 335.393 203.122C335.398 203.151 335.401 203.182 335.401 203.211V217.28C345.109 218.725 352.871 226.157 354.802 235.691H364.144H364.142ZM207.522 235.691C209.678 225.048 219.099 217.027 230.378 217.027C241.657 217.027 251.078 225.048 253.234 235.691H290.901V170.732H192.46V235.691H207.522ZM347.994 235.691H353.725C351.585 225.632 342.64 218.077 331.943 218.077C321.127 218.077 312.17 225.467 310.16 235.691H315.893C317.908 228.732 324.334 223.636 331.944 223.636C339.551 223.636 345.979 228.732 347.994 235.691ZM291.955 173.895V235.691H293.548V173.895H291.955ZM246.431 235.691H252.162C250.024 225.633 241.078 218.077 230.38 218.077C219.682 218.077 210.735 225.633 208.597 235.691H214.33C216.345 228.732 222.773 223.636 230.381 223.636C237.99 223.636 244.416 228.732 246.431 235.691ZM334.346 217.148V203.256L331.16 184.879C331.055 184.276 330.531 183.835 329.918 183.835C324.383 183.835 305.151 183.835 299.172 183.835C298.839 183.835 298.517 183.967 298.281 184.203C298.045 184.439 297.912 184.761 297.912 185.094V235.691H309.083C311.189 224.984 320.613 217.027 331.941 217.027C332.754 217.027 333.555 217.067 334.346 217.148ZM307.282 206.998C307.282 206.665 307.151 206.346 306.915 206.112C306.68 205.878 306.362 205.745 306.029 205.745C304.699 205.745 301.897 205.745 300.569 205.745C300.236 205.745 299.918 205.878 299.683 206.112C299.449 206.346 299.316 206.666 299.316 206.998C299.316 207.041 299.316 207.083 299.316 207.127C299.316 207.46 299.449 207.778 299.683 208.013C299.918 208.247 300.238 208.38 300.569 208.38C301.897 208.38 304.699 208.38 306.029 208.38C306.362 208.38 306.68 208.247 306.915 208.013C307.151 207.777 307.282 207.458 307.282 207.127C307.282 207.085 307.282 207.041 307.282 206.998ZM306.229 206.998C306.229 207.041 306.229 207.083 306.229 207.127C306.229 207.18 306.208 207.232 306.171 207.269C306.134 207.306 306.082 207.327 306.029 207.327C304.699 207.327 301.897 207.327 300.569 207.327C300.516 207.327 300.464 207.306 300.427 207.269C300.39 207.232 300.369 207.18 300.369 207.127C300.369 207.083 300.369 207.041 300.369 206.998C300.369 206.944 300.39 206.893 300.427 206.855C300.464 206.818 300.516 206.797 300.569 206.797C301.897 206.797 304.699 206.797 306.029 206.797C306.082 206.797 306.132 206.818 306.171 206.855C306.208 206.893 306.229 206.944 306.229 206.998ZM330.015 186.246C329.905 185.516 329.278 184.976 328.539 184.976C324.227 184.976 304.496 184.976 300.535 184.976C299.863 184.976 299.316 185.522 299.316 186.194C299.316 189.118 299.316 200.397 299.316 202.773C299.316 203.028 299.418 203.274 299.599 203.455C299.78 203.637 300.026 203.738 300.283 203.738C303.905 203.738 328.731 203.738 331.736 203.738C331.964 203.738 332.179 203.639 332.327 203.466C332.476 203.293 332.542 203.065 332.509 202.841L330.015 186.246ZM331.422 202.685L328.975 186.401C328.943 186.186 328.757 186.026 328.539 186.026C324.227 186.026 304.496 186.026 300.535 186.026C300.443 186.026 300.369 186.101 300.369 186.193V202.685H331.422Z" fill="#0B5306"/>
<path fillRule="evenodd" clip-rule="evenodd" d="M278.37 106.297H74.8154V108.975H278.37V106.297Z" fill="#D79859"/>
<path fillRule="evenodd" clip-rule="evenodd" d="M275.679 108.975V106.297H278.37V108.975H275.679Z" fill="#C88848"/>
<path fillRule="evenodd" clip-rule="evenodd" d="M187.929 109.227L189.661 142.783C189.661 142.783 186.974 154.273 176.598 153.641C163.39 152.836 163.453 140.418 163.453 140.418L165.321 109.226H187.929V109.227Z" fill="#FFB367"/>
<path fillRule="evenodd" clip-rule="evenodd" d="M211.558 109.227L215.632 140.795C215.632 140.795 216.186 147.354 208.945 151.902C201.705 156.452 192.808 151.178 191.084 146.353C191.084 146.353 189.671 142.494 189.567 140.391L187.931 109.226H211.558V109.227Z" fill="#FFE2BC"/>
<path fillRule="evenodd" clip-rule="evenodd" d="M141.622 109.227L137.549 140.795C137.549 140.795 136.994 147.354 144.235 151.902C151.477 156.452 160.372 151.178 162.096 146.353C162.096 146.353 163.509 142.494 163.613 140.391L165.249 109.226H141.622V109.227Z" fill="#FFE2BC"/>
<path fillRule="evenodd" clip-rule="evenodd" d="M234.946 109.227L241.783 140.606C241.783 140.606 242.23 150.087 231.613 153.475C229.333 154.202 226.397 153.509 224.627 153.093C218.158 151.569 215.947 144.58 215.657 141.16L211.558 109.227H234.946Z" fill="#FFB367"/>
<path fillRule="evenodd" clip-rule="evenodd" d="M118.233 109.227L111.396 140.606C111.396 140.606 110.949 150.087 121.565 153.475C123.846 154.202 126.782 153.509 128.553 153.093C135.023 151.569 137.233 144.58 137.523 141.16L141.622 109.227H118.233Z" fill="#FFB367"/>
<path fillRule="evenodd" clip-rule="evenodd" d="M256.893 109.227L267.686 140.606C267.686 140.606 266.977 153.575 255.134 153.473C242.949 153.369 242.265 142.681 241.754 140.606L234.946 109.227H256.893Z" fill="#FFE2BC"/>
<path fillRule="evenodd" clip-rule="evenodd" d="M96.2871 109.227L85.4947 140.606C85.4947 140.606 86.203 153.575 98.0465 153.473C110.231 153.369 110.917 142.681 111.426 140.606L118.234 109.227H96.2871Z" fill="#FFE2BC"/>
<path fillRule="evenodd" clip-rule="evenodd" d="M278.481 109.227L293.766 140.606C293.766 140.606 294.166 149.788 284.981 153.093C275.796 156.397 267.089 148.007 267.673 140.606L256.893 109.227H278.481Z" fill="#FFB367"/>
<path fillRule="evenodd" clip-rule="evenodd" d="M276.685 140.043C279.064 139.895 281.232 138.627 282.527 136.628C283.824 134.629 284.094 132.132 283.257 129.899C279.924 121.013 275.458 109.106 275.458 109.106H278.362L293.766 140.607L293.761 140.609C293.766 140.72 293.998 146.225 289.667 150.05C287.063 152.35 283.051 153.935 279.233 153.667C268.344 152.901 267.666 140.606 267.666 140.606L276.685 140.043Z" fill="#D79859"/>
<path fillRule="evenodd" clip-rule="evenodd" d="M215.759 140.606H241.853C241.853 140.606 242.134 146.185 237.758 150.05C235.155 152.35 231.102 154.283 227.325 153.667C215.417 151.726 215.759 140.606 215.759 140.606Z" fill="#D79859"/>
<path fillRule="evenodd" clip-rule="evenodd" d="M137.466 140.606H111.373C111.373 140.606 111.092 146.185 115.468 150.05C118.071 152.35 122.123 154.283 125.901 153.667C137.811 151.726 137.466 140.606 137.466 140.606Z" fill="#D79859"/>
<path fillRule="evenodd" clip-rule="evenodd" d="M163.565 140.606H189.659C189.659 140.606 189.939 146.185 185.565 150.05C182.961 152.35 178.909 154.283 175.132 153.667C163.22 151.726 163.565 140.606 163.565 140.606Z" fill="#D79859"/>
<path fillRule="evenodd" clip-rule="evenodd" d="M241.575 140.606H267.668C267.668 140.606 267.949 146.185 263.574 150.05C260.97 152.35 256.91 154.334 253.14 153.667C241.885 151.676 241.575 140.606 241.575 140.606Z" fill="#E6CFB1"/>
<path fillRule="evenodd" clip-rule="evenodd" d="M111.651 140.606H85.5577C85.5577 140.606 85.2763 146.185 89.6521 150.05C92.2556 152.35 96.3162 154.334 100.086 153.667C111.341 151.676 111.651 140.606 111.651 140.606Z" fill="#E6CFB1"/>
<path fillRule="evenodd" clip-rule="evenodd" d="M189.663 140.606H215.756C215.756 140.606 216.038 146.185 211.662 150.05C209.058 152.35 204.998 154.334 201.228 153.667C189.973 151.676 189.663 140.606 189.663 140.606Z" fill="#E6CFB1"/>
<path fillRule="evenodd" clip-rule="evenodd" d="M163.563 140.606H137.47C137.47 140.606 137.188 146.185 141.564 150.05C144.168 152.35 148.228 154.334 151.998 153.667C163.254 151.676 163.563 140.606 163.563 140.606Z" fill="#E6CFB1"/>
<path fillRule="evenodd" clip-rule="evenodd" d="M74.6973 109.227L59.4126 140.606C59.4126 140.606 59.0131 149.788 68.1982 153.093C77.3833 156.397 86.0913 148.007 85.5076 140.606L96.2871 109.227H74.6973Z" fill="#FFB367"/>
<path fillRule="evenodd" clip-rule="evenodd" d="M85.5545 140.606H59.4594C59.4594 140.606 59.1781 146.185 63.5539 150.05C66.1574 152.35 70.1694 153.935 73.9874 153.667C84.8769 152.901 85.5545 140.606 85.5545 140.606Z" fill="#D79859"/>
<path fillRule="evenodd" clip-rule="evenodd" d="M74.2251 109.13V106.132C74.2251 105.841 74.4612 105.607 74.7507 105.607H278.447C278.739 105.607 278.973 105.843 278.973 106.132V109.13L294.235 140.371C294.271 140.442 294.29 140.523 294.29 140.607C294.29 148.079 288.221 154.145 280.745 154.145C274.57 154.145 269.355 150.004 267.728 144.352C266.101 150.004 260.886 154.145 254.71 154.145C248.535 154.145 243.319 150.004 241.693 144.352C240.066 150.004 234.849 154.145 228.675 154.145C222.499 154.145 217.284 150.004 215.657 144.352C214.029 150.004 208.814 154.145 202.638 154.145C196.464 154.145 191.247 150.004 189.621 144.352C187.994 150.004 182.779 154.145 176.603 154.145C170.427 154.145 165.212 150.004 163.586 144.352C161.959 150.004 156.744 154.145 150.568 154.145C144.392 154.145 139.177 150.004 137.55 144.352C135.924 150.004 130.707 154.145 124.533 154.145C118.357 154.145 113.142 150.004 111.515 144.352C109.887 150.004 104.672 154.145 98.496 154.145C92.322 154.145 87.1052 150.004 85.4784 144.352C83.8516 150.004 78.6365 154.145 72.4609 154.145C64.9867 154.145 58.9161 148.079 58.9161 140.607C58.9161 140.523 58.9355 140.444 58.9711 140.371L74.2251 109.13ZM278.108 109.754H257.682L268.252 140.436L268.229 140.444C268.245 140.496 268.255 140.551 268.255 140.607C268.255 147.499 273.853 153.095 280.747 153.095C287.602 153.095 293.174 147.564 293.239 140.729L278.108 109.754ZM95.5432 109.754H75.0919L59.9607 140.727C60.0254 147.562 65.5979 153.093 72.4528 153.093C79.348 153.093 84.9448 147.498 84.9448 140.606C84.9448 140.543 84.9561 140.481 84.9771 140.426L95.5432 109.754ZM117.6 109.754H96.6558L85.9975 140.695C86.0444 147.546 91.6234 153.095 98.4895 153.095C105.385 153.095 110.983 147.499 110.983 140.607C110.983 140.567 110.988 140.527 110.996 140.488L117.6 109.754ZM141.029 109.754H118.676L112.034 140.662C112.063 147.528 117.65 153.093 124.526 153.093C131.42 153.093 137.018 147.498 137.018 140.606C137.018 140.538 141.029 109.754 141.029 109.754ZM164.716 109.754H142.09L138.071 140.674C138.107 147.535 143.69 153.095 150.563 153.095C157.458 153.095 163.055 147.499 163.055 140.607C163.055 140.598 164.716 109.754 164.716 109.754ZM187.454 109.754H165.769C165.769 109.754 164.106 140.562 164.106 140.607C164.106 147.499 169.705 153.095 176.598 153.095C183.494 153.095 189.09 147.499 189.09 140.607C189.092 140.538 187.454 109.754 187.454 109.754ZM211.134 109.754H188.508C188.508 109.754 190.143 140.598 190.143 140.607C190.143 147.499 195.741 153.095 202.635 153.095C209.53 153.095 215.129 147.499 215.129 140.607C215.129 140.601 215.129 140.594 215.129 140.586L211.134 109.754ZM234.548 109.754H212.197L216.186 140.539L216.178 140.541C216.18 140.564 216.183 140.585 216.183 140.607C216.183 147.499 221.78 153.095 228.675 153.095C235.569 153.095 241.167 147.499 241.167 140.607C241.167 140.593 241.167 140.577 241.169 140.56L234.548 109.754ZM256.568 109.754H235.624L242.229 140.496L242.207 140.501C242.213 140.535 242.217 140.57 242.217 140.606C242.217 147.498 247.813 153.093 254.709 153.093C261.597 153.093 267.191 147.509 267.201 140.625L256.568 109.754ZM277.922 108.702V106.657H75.2778V108.702H277.922Z" fill="#0B5306"/>
<path fillRule="evenodd" clip-rule="evenodd" d="M180.901 163.685C180.901 163.528 180.84 163.376 180.728 163.264C180.617 163.154 180.466 163.091 180.308 163.091C174.213 163.091 156.64 163.091 150.546 163.091C150.387 163.091 150.237 163.154 150.125 163.264C150.015 163.376 149.952 163.528 149.952 163.685C149.952 168.719 149.952 201.231 149.952 206.265C149.952 206.422 150.015 206.574 150.125 206.684C150.237 206.796 150.387 206.859 150.546 206.859C156.64 206.859 174.213 206.859 180.308 206.859C180.466 206.859 180.617 206.796 180.728 206.684C180.84 206.574 180.901 206.422 180.901 206.265C180.901 201.231 180.901 168.719 180.901 163.685Z" fill="#FFE2BC"/>
<path fillRule="evenodd" clip-rule="evenodd" d="M178.759 163.091C178.759 163.091 178.759 191.179 178.759 201.089C178.759 202.973 177.231 204.5 175.345 204.5V206.857H180.901V163.09H178.759V163.091Z" fill="#E5C69C"/>
<path fillRule="evenodd" clip-rule="evenodd" d="M176.213 184.974L174.433 183.195C174.228 182.988 174.228 182.656 174.433 182.45C174.638 182.244 174.972 182.244 175.177 182.45C175.177 182.45 177.032 184.303 177.297 184.57C177.52 184.792 177.52 185.154 177.297 185.375C177.032 185.642 175.177 187.494 175.177 187.494C174.972 187.699 174.638 187.699 174.433 187.494C174.228 187.289 174.228 186.956 174.433 186.751L176.213 184.974Z" fill="#054700"/>
<path fillRule="evenodd" clip-rule="evenodd" d="M181.427 163.685C181.427 163.389 181.309 163.103 181.1 162.894C180.89 162.684 180.606 162.566 180.308 162.566C174.213 162.566 156.64 162.566 150.545 162.566C150.249 162.566 149.963 162.684 149.755 162.894C149.544 163.103 149.426 163.389 149.426 163.685C149.426 168.719 149.426 201.231 149.426 206.265C149.426 206.561 149.544 206.846 149.755 207.056C149.963 207.264 150.249 207.384 150.545 207.384C156.64 207.384 174.213 207.384 180.308 207.384C180.606 207.384 180.89 207.264 181.1 207.056C181.309 206.846 181.427 206.561 181.427 206.265V163.685ZM180.376 163.685V206.265C180.376 206.283 180.369 206.299 180.356 206.312C180.344 206.325 180.326 206.332 180.308 206.332C174.213 206.332 156.64 206.332 150.545 206.332C150.528 206.332 150.511 206.324 150.498 206.312C150.486 206.299 150.479 206.283 150.479 206.265C150.479 201.231 150.479 168.719 150.479 163.685C150.479 163.667 150.487 163.651 150.498 163.638C150.511 163.625 150.528 163.618 150.545 163.618C156.64 163.618 174.213 163.618 180.308 163.618C180.326 163.618 180.344 163.626 180.356 163.638C180.369 163.651 180.376 163.667 180.376 163.685Z" fill="#054700"/>
<path fillRule="evenodd" clip-rule="evenodd" d="M136.225 163.685C136.225 163.528 136.163 163.376 136.052 163.264C135.94 163.154 135.79 163.091 135.633 163.091C129.536 163.091 111.963 163.091 105.868 163.091C105.71 163.091 105.56 163.154 105.448 163.264C105.338 163.376 105.275 163.528 105.275 163.685C105.275 168.719 105.275 201.231 105.275 206.265C105.275 206.422 105.338 206.574 105.448 206.684C105.56 206.796 105.71 206.859 105.868 206.859C111.963 206.859 129.536 206.859 135.633 206.859C135.79 206.859 135.94 206.796 136.052 206.684C136.163 206.574 136.225 206.422 136.225 206.265C136.225 201.231 136.225 168.719 136.225 163.685Z" fill="#FFE2BC"/>
<path fillRule="evenodd" clip-rule="evenodd" d="M108.689 163.091C108.689 163.091 108.689 191.179 108.689 201.089C108.689 202.973 107.161 204.5 105.275 204.5V206.857H110.831V163.09H108.689V163.091Z" fill="#E5C69C"/>
<path fillRule="evenodd" clip-rule="evenodd" d="M109.953 184.974L111.734 183.195C111.939 182.988 111.939 182.656 111.734 182.45C111.528 182.244 111.195 182.244 110.99 182.45C110.99 182.45 109.135 184.303 108.87 184.57C108.647 184.792 108.647 185.154 108.87 185.375C109.135 185.642 110.99 187.494 110.99 187.494C111.195 187.699 111.528 187.699 111.734 187.494C111.939 187.289 111.939 186.956 111.734 186.751L109.953 184.974Z" fill="#054700"/>
<path fillRule="evenodd" clip-rule="evenodd" d="M136.75 163.685C136.75 163.389 136.632 163.103 136.423 162.894C136.213 162.684 135.928 162.566 135.633 162.566C129.536 162.566 111.963 162.566 105.868 162.566C105.572 162.566 105.286 162.684 105.078 162.894C104.867 163.103 104.749 163.389 104.749 163.685C104.749 168.719 104.749 201.231 104.749 206.265C104.749 206.561 104.867 206.846 105.078 207.056C105.286 207.264 105.572 207.384 105.868 207.384C111.963 207.384 129.536 207.384 135.633 207.384C135.928 207.384 136.213 207.264 136.423 207.056C136.632 206.846 136.75 206.561 136.75 206.265V163.685ZM135.697 163.685V206.265C135.697 206.283 135.691 206.299 135.678 206.312C135.665 206.325 135.647 206.332 135.631 206.332C129.535 206.332 111.962 206.332 105.867 206.332C105.849 206.332 105.833 206.324 105.82 206.312C105.807 206.299 105.8 206.283 105.8 206.265C105.8 201.231 105.8 168.719 105.8 163.685C105.8 163.667 105.809 163.651 105.82 163.638C105.833 163.625 105.849 163.618 105.867 163.618C111.962 163.618 129.535 163.618 135.631 163.618C135.647 163.618 135.665 163.626 135.678 163.638C135.691 163.651 135.697 163.667 135.697 163.685Z" fill="#054700"/>
<path fillRule="evenodd" clip-rule="evenodd" d="M131.999 180.311C131.999 180.311 128.949 189.745 126.685 202.789H128.581C128.581 202.789 130.018 193.156 130.416 190.733C130.814 188.31 132.471 181.126 132.471 181.126L131.999 180.311Z" fill="#DCBE51"/>
<path fillRule="evenodd" clip-rule="evenodd" d="M175.345 162.17C175.345 162.013 175.284 161.861 175.172 161.75C175.062 161.64 174.91 161.577 174.753 161.577C168.657 161.577 117.508 161.577 111.413 161.577C111.257 161.577 111.105 161.64 110.993 161.75C110.883 161.861 110.82 162.013 110.82 162.17C110.82 167.205 110.82 202.744 110.82 207.778C110.82 207.935 110.883 208.087 110.993 208.197C111.105 208.308 111.257 208.371 111.413 208.371C117.508 208.371 168.659 208.371 174.753 208.371C174.91 208.371 175.062 208.308 175.172 208.197C175.284 208.087 175.345 207.935 175.345 207.778C175.345 202.744 175.345 167.206 175.345 162.17Z" fill="#FFE2BC"/>
<path fillRule="evenodd" clip-rule="evenodd" d="M171.542 161.579C171.542 161.579 171.542 185.857 171.542 197.652C171.542 201.124 168.726 203.938 165.253 203.938C149.726 203.938 110.818 203.938 110.818 203.938C110.818 203.938 110.818 206.472 110.818 207.709C110.818 208.076 111.116 208.373 111.481 208.373C117.908 208.373 168.958 208.373 174.8 208.373C174.944 208.373 175.083 208.315 175.185 208.213C175.287 208.111 175.344 207.972 175.344 207.828C175.344 203.076 175.344 168.627 175.344 162.508C175.344 161.996 174.928 161.579 174.415 161.579C173.291 161.579 171.542 161.579 171.542 161.579Z" fill="#E5C69C"/>
<path fillRule="evenodd" clip-rule="evenodd" d="M175.871 162.17C175.871 161.874 175.753 161.588 175.544 161.38C175.334 161.17 175.049 161.052 174.753 161.052C168.657 161.052 117.508 161.052 111.413 161.052C111.117 161.052 110.831 161.17 110.623 161.38C110.412 161.588 110.294 161.874 110.294 162.17C110.294 167.205 110.294 202.744 110.294 207.778C110.294 208.074 110.412 208.358 110.623 208.569C110.831 208.777 111.117 208.897 111.413 208.897C117.508 208.897 168.658 208.897 174.753 208.897C175.049 208.897 175.334 208.777 175.544 208.569C175.753 208.358 175.871 208.074 175.871 207.778V162.17ZM174.82 162.17V207.778C174.82 207.796 174.813 207.812 174.8 207.825C174.787 207.838 174.771 207.845 174.753 207.845C168.657 207.845 117.508 207.845 111.413 207.845C111.396 207.845 111.379 207.836 111.367 207.825C111.354 207.812 111.347 207.796 111.347 207.778C111.347 202.744 111.347 167.205 111.347 162.17C111.347 162.152 111.355 162.136 111.367 162.123C111.379 162.11 111.396 162.104 111.413 162.104C117.508 162.104 168.658 162.104 174.753 162.104C174.771 162.104 174.787 162.112 174.8 162.123C174.813 162.136 174.82 162.152 174.82 162.17Z" fill="#054700"/>
<path fillRule="evenodd" clip-rule="evenodd" d="M143.071 169.978V169.97C146.302 169.97 148.919 167.56 148.919 167.56C148.919 167.56 155.718 169.224 156.975 169.977C158.231 170.73 158.702 172.956 159.468 175.839C160.235 178.724 161.529 186.67 162.413 193.028C163.296 199.387 163.838 202.789 163.838 202.789H157.725C157.725 202.789 156.595 194.63 155.888 191.063C155.182 187.496 153.757 181.491 153.757 181.491V201.333H132.397V181.491C132.397 181.491 130.972 187.496 130.265 191.063C129.559 194.63 128.428 202.789 128.428 202.789H122.314C122.314 202.789 122.856 199.387 123.739 193.028C124.622 186.67 125.917 178.724 126.684 175.839C127.45 172.956 127.921 170.73 129.177 169.977C130.434 169.224 137.233 167.56 137.233 167.56C137.233 167.56 139.847 169.974 143.071 169.978Z" fill="#FFE277"/>
<path fillRule="evenodd" clip-rule="evenodd" d="M153.86 180.678V201.155H132.471V198.596C132.471 198.596 143.632 198.596 148.854 198.596C150.355 198.596 151.613 197.468 151.778 195.978C152.336 190.924 153.506 180.311 153.506 180.311L153.86 180.678Z" fill="#DCBE51"/>
<path fillRule="evenodd" clip-rule="evenodd" d="M148.396 167.985C148.396 167.985 153.372 170.117 155.524 171.04C156.137 171.304 156.585 171.845 156.724 172.498C157.3 175.189 158.831 182.472 159.481 186.744C160.29 192.06 161.734 202.79 161.734 202.79H163.836C163.836 202.79 162.024 189.855 161.433 186.164C160.841 182.472 158.582 171.415 157.523 170.481C156.462 169.547 148.922 167.775 148.922 167.775L148.396 167.985Z" fill="#DCBE51"/>
<path fillRule="evenodd" clip-rule="evenodd" d="M132.353 201.859C132.062 201.859 131.828 201.623 131.828 201.334V185.457C131.399 187.555 130.94 189.883 130.665 191.509C130.028 195.27 129.045 203.049 129.045 203.049C129.012 203.312 128.787 203.51 128.522 203.51H122.423C122.274 203.51 122.13 203.445 122.03 203.333C121.929 203.222 121.882 203.073 121.9 202.923C121.9 202.923 123.304 190.739 124.667 183.14C125.72 177.276 126.884 173.274 127.524 171.297L127.529 171.281C127.906 170.235 128.753 169.427 129.824 169.099C132.647 168.28 137.327 167.03 137.327 167.03C137.573 166.966 137.829 167.084 137.937 167.312C137.937 167.312 138.841 169.015 143.081 169.513C147.323 169.015 148.227 167.312 148.227 167.312C148.336 167.084 148.592 166.966 148.836 167.03C148.836 167.03 153.516 168.28 156.348 169.101C157.412 169.427 158.257 170.237 158.634 171.281L158.641 171.297C159.279 173.276 160.445 177.276 161.496 183.14C162.861 190.739 164.265 202.923 164.265 202.923C164.281 203.072 164.234 203.222 164.134 203.333C164.035 203.447 163.891 203.51 163.741 203.51H157.641C157.376 203.51 157.153 203.312 157.119 203.049C157.119 203.049 156.136 195.27 155.499 191.509C155.224 189.883 154.763 187.555 154.336 185.457V201.334C154.336 201.625 154.1 201.859 153.81 201.859H132.353ZM143.015 170.56C139.274 170.132 137.767 168.798 137.24 168.141C136.092 168.449 132.465 169.426 130.126 170.104C129.381 170.334 128.789 170.898 128.522 171.63C127.888 173.589 126.742 177.539 125.704 183.326C124.522 189.909 123.31 199.944 123.013 202.457H128.058C128.28 200.73 129.08 194.559 129.627 191.333C130.256 187.618 131.839 180.264 131.839 180.264C131.895 180.001 132.141 179.823 132.408 179.852C132.677 179.881 132.879 180.106 132.879 180.374V200.807H153.285V180.374C153.285 180.106 153.489 179.88 153.755 179.852C154.022 179.823 154.268 180.001 154.326 180.264C154.326 180.264 155.908 187.62 156.538 191.333C157.085 194.559 157.885 200.728 158.107 202.457H163.152C162.856 199.944 161.644 189.909 160.463 183.326C159.425 177.539 158.277 173.589 157.644 171.63C157.379 170.898 156.786 170.334 156.048 170.108C153.704 169.426 150.076 168.448 148.927 168.141C148.398 168.8 146.894 170.134 143.152 170.56C143.131 170.562 143.11 170.565 143.089 170.565H143.078C143.055 170.565 143.034 170.563 143.015 170.56Z" fill="#0B5306"/>
<path fillRule="evenodd" clip-rule="evenodd" d="M170.689 184.974L168.909 183.195C168.704 182.988 168.704 182.656 168.909 182.45C169.114 182.244 169.448 182.244 169.655 182.45C169.655 182.45 171.509 184.303 171.775 184.57C171.996 184.792 171.996 185.154 171.775 185.375C171.508 185.642 169.655 187.494 169.655 187.494C169.449 187.699 169.116 187.699 168.909 187.494C168.704 187.289 168.704 186.956 168.909 186.751L170.689 184.974Z" fill="#054700"/>
<path fillRule="evenodd" clip-rule="evenodd" d="M115.834 184.974L117.615 183.195C117.82 182.988 117.82 182.656 117.615 182.45C117.41 182.244 117.076 182.244 116.871 182.45C116.871 182.45 115.016 184.303 114.749 184.57C114.528 184.792 114.528 185.154 114.749 185.375C115.016 185.642 116.871 187.494 116.871 187.494C117.076 187.699 117.41 187.699 117.615 187.494C117.82 187.289 117.82 186.956 117.615 186.751L115.834 184.974Z" fill="#054700"/>
<path fillRule="evenodd" clip-rule="evenodd" d="M71.9791 247.781C72.5046 247.304 73.0237 246.839 73.5396 246.386C73.7579 246.195 73.7789 245.861 73.5864 245.644C73.3956 245.426 73.0625 245.405 72.8442 245.596C72.3235 246.053 71.7979 246.524 71.2692 247.005C71.0541 247.201 71.0395 247.534 71.2352 247.747C71.4325 247.962 71.764 247.977 71.9791 247.781ZM75.1259 245.02C75.6693 244.563 76.2061 244.119 76.7398 243.689C76.9645 243.506 77.0001 243.175 76.8174 242.948C76.6347 242.724 76.3048 242.688 76.0784 242.871C75.5399 243.306 74.9965 243.755 74.4484 244.217C74.2268 244.405 74.1993 244.736 74.3869 244.957C74.5713 245.179 74.9044 245.208 75.1259 245.02ZM78.3795 242.392C78.9406 241.958 79.4985 241.539 80.05 241.135C80.2828 240.964 80.3346 240.634 80.1632 240.4C79.9917 240.167 79.6618 240.115 79.4274 240.286C78.8695 240.695 78.3067 241.119 77.7375 241.558C77.5079 241.736 77.4658 242.066 77.6421 242.295C77.8184 242.527 78.1499 242.569 78.3795 242.392ZM81.7511 239.921C82.3349 239.517 82.9122 239.129 83.4847 238.756C83.7272 238.597 83.7968 238.272 83.6383 238.03C83.4798 237.786 83.1532 237.718 82.9106 237.876C82.3317 238.255 81.7447 238.647 81.1512 239.058C80.9135 239.223 80.8537 239.551 81.0186 239.789C81.1852 240.028 81.5118 240.088 81.7511 239.921ZM155.631 239.452C156.323 239.496 157.036 239.517 157.771 239.514C158.062 239.512 158.296 239.275 158.293 238.985C158.291 238.694 158.055 238.46 157.764 238.463C157.054 238.468 156.365 238.447 155.697 238.405C155.406 238.386 155.157 238.605 155.14 238.895C155.122 239.182 155.342 239.433 155.631 239.452ZM159.905 239.435C160.596 239.388 161.304 239.321 162.028 239.233C162.316 239.199 162.522 238.935 162.488 238.647C162.452 238.36 162.19 238.154 161.902 238.19C161.197 238.276 160.508 238.34 159.836 238.386C159.546 238.405 159.326 238.656 159.347 238.946C159.365 239.234 159.616 239.452 159.905 239.435ZM151.386 238.825C152.064 238.988 152.767 239.124 153.498 239.229C153.786 239.27 154.053 239.071 154.095 238.785C154.135 238.497 153.936 238.23 153.65 238.188C152.952 238.087 152.279 237.959 151.632 237.802C151.349 237.734 151.064 237.909 150.998 238.192C150.929 238.475 151.103 238.757 151.386 238.825ZM164.134 238.924C164.816 238.807 165.512 238.673 166.221 238.52C166.506 238.458 166.686 238.179 166.626 237.896C166.564 237.613 166.285 237.432 166.002 237.493C165.306 237.642 164.624 237.775 163.958 237.888C163.671 237.936 163.479 238.208 163.527 238.494C163.576 238.78 163.848 238.972 164.134 238.924ZM147.319 237.39C147.953 237.697 148.618 237.973 149.316 238.219C149.591 238.315 149.89 238.171 149.988 237.898C150.083 237.623 149.939 237.324 149.666 237.227C149.006 236.996 148.377 236.735 147.779 236.444C147.517 236.317 147.203 236.427 147.075 236.689C146.947 236.949 147.057 237.262 147.319 237.39ZM168.288 238.035C168.958 237.864 169.64 237.678 170.334 237.476C170.612 237.393 170.774 237.101 170.691 236.824C170.61 236.546 170.318 236.385 170.039 236.467C169.359 236.666 168.686 236.849 168.028 237.017C167.746 237.088 167.577 237.375 167.648 237.655C167.721 237.936 168.008 238.106 168.288 238.035ZM85.2505 237.645C85.8569 237.277 86.4569 236.926 87.0503 236.592C87.3042 236.449 87.3932 236.129 87.2509 235.876C87.1086 235.623 86.7884 235.533 86.5345 235.675C85.9313 236.015 85.3201 236.372 84.7039 236.747C84.4549 236.897 84.3773 237.22 84.5277 237.469C84.6781 237.716 85.0031 237.796 85.2505 237.645ZM172.362 236.85C173.02 236.635 173.688 236.407 174.367 236.166C174.64 236.069 174.784 235.767 174.685 235.494C174.588 235.221 174.286 235.079 174.013 235.176C173.343 235.415 172.683 235.64 172.035 235.851C171.76 235.94 171.608 236.238 171.699 236.514C171.787 236.789 172.085 236.939 172.362 236.85ZM143.687 235.037C144.232 235.499 144.813 235.93 145.431 236.328C145.673 236.486 146 236.417 146.157 236.173C146.315 235.929 146.246 235.602 146.001 235.447C145.422 235.072 144.877 234.668 144.368 234.235C144.147 234.048 143.813 234.075 143.626 234.296C143.438 234.516 143.466 234.848 143.687 235.037ZM88.8857 235.604C89.5164 235.279 90.139 234.974 90.7551 234.688C91.0187 234.565 91.1335 234.251 91.009 233.988C90.8877 233.724 90.574 233.611 90.3104 233.734C89.683 234.027 89.0458 234.338 88.4038 234.67C88.1451 234.804 88.0449 235.119 88.1758 235.378C88.3101 235.635 88.627 235.737 88.8857 235.604ZM176.351 235.428C176.996 235.179 177.651 234.917 178.316 234.642C178.584 234.532 178.712 234.224 178.6 233.955C178.489 233.687 178.181 233.559 177.913 233.671C177.256 233.942 176.608 234.201 175.971 234.447C175.699 234.55 175.565 234.856 175.669 235.127C175.774 235.397 176.079 235.533 176.351 235.428ZM92.66 233.847C93.3149 233.576 93.9602 233.325 94.5973 233.094C94.8706 232.995 95.0113 232.693 94.9126 232.422C94.814 232.148 94.5116 232.008 94.2383 232.106C93.5866 232.342 92.9252 232.599 92.2558 232.877C91.9873 232.989 91.8596 233.298 91.9711 233.564C92.0843 233.833 92.3916 233.959 92.66 233.847ZM180.261 233.815C180.897 233.537 181.539 233.247 182.189 232.947C182.452 232.826 182.567 232.512 182.446 232.249C182.324 231.985 182.011 231.87 181.747 231.992C181.104 232.289 180.466 232.577 179.839 232.852C179.572 232.968 179.453 233.278 179.569 233.543C179.685 233.81 179.996 233.931 180.261 233.815ZM129.614 233.791C130.335 233.834 131.051 233.849 131.765 233.828C132.054 233.82 132.284 233.577 132.274 233.288C132.266 232.997 132.023 232.769 131.732 232.779C131.053 232.798 130.367 232.784 129.677 232.742C129.387 232.724 129.138 232.945 129.121 233.233C129.103 233.524 129.323 233.773 129.614 233.791ZM140.773 231.833C141.187 232.426 141.638 232.992 142.127 233.529C142.322 233.744 142.656 233.758 142.869 233.564C143.084 233.369 143.1 233.036 142.905 232.821C142.449 232.317 142.025 231.786 141.637 231.23C141.47 230.993 141.142 230.935 140.904 231.101C140.667 231.268 140.607 231.596 140.773 231.833ZM133.918 233.647C134.628 233.546 135.337 233.401 136.042 233.205C136.321 233.129 136.486 232.839 136.409 232.559C136.331 232.279 136.04 232.116 135.76 232.194C135.099 232.376 134.434 232.512 133.768 232.607C133.48 232.648 133.281 232.916 133.322 233.202C133.364 233.488 133.629 233.689 133.918 233.647ZM125.382 233.267C126.09 233.388 126.792 233.496 127.484 233.585C127.772 233.622 128.037 233.419 128.073 233.131C128.108 232.843 127.906 232.578 127.617 232.543C126.937 232.457 126.253 232.35 125.56 232.231C125.274 232.181 125.002 232.373 124.953 232.659C124.905 232.945 125.096 233.217 125.382 233.267ZM121.236 232.459C121.933 232.603 122.621 232.743 123.301 232.879C123.585 232.936 123.862 232.751 123.918 232.465C123.973 232.181 123.789 231.904 123.504 231.848C122.828 231.714 122.143 231.573 121.447 231.431C121.163 231.373 120.886 231.555 120.827 231.838C120.768 232.121 120.951 232.399 121.236 232.459ZM138.092 232.489C138.737 232.215 139.383 231.891 140.029 231.515C140.28 231.369 140.366 231.048 140.219 230.796C140.073 230.545 139.751 230.459 139.501 230.606C138.894 230.96 138.286 231.264 137.681 231.523C137.415 231.636 137.29 231.945 137.403 232.213C137.515 232.478 137.825 232.603 138.092 232.489ZM96.5685 232.434C97.2445 232.226 97.9107 232.04 98.5689 231.874C98.8502 231.803 99.0217 231.516 98.9489 231.235C98.8777 230.954 98.5915 230.784 98.3101 230.855C97.6358 231.025 96.9518 231.217 96.2581 231.431C95.9815 231.516 95.8263 231.811 95.9104 232.089C95.9961 232.363 96.2904 232.519 96.5685 232.434ZM184.098 232.042C184.723 231.74 185.353 231.426 185.992 231.104C186.251 230.973 186.354 230.657 186.223 230.398C186.092 230.139 185.775 230.036 185.517 230.167C184.884 230.487 184.258 230.797 183.641 231.096C183.38 231.224 183.27 231.537 183.397 231.799C183.523 232.06 183.836 232.169 184.098 232.042ZM117.12 231.644C117.817 231.77 118.501 231.903 119.177 232.037C119.462 232.095 119.738 231.909 119.795 231.625C119.851 231.34 119.667 231.064 119.382 231.007C118.7 230.87 118.008 230.737 117.308 230.61C117.021 230.556 116.748 230.747 116.696 231.032C116.645 231.318 116.836 231.592 117.12 231.644ZM100.593 231.418C101.286 231.282 101.968 231.169 102.639 231.074C102.927 231.033 103.127 230.768 103.087 230.48C103.047 230.193 102.78 229.992 102.492 230.033C101.801 230.13 101.1 230.246 100.39 230.387C100.105 230.442 99.9191 230.72 99.9757 231.004C100.031 231.289 100.307 231.474 100.593 231.418ZM112.995 231.02C113.695 231.101 114.382 231.195 115.062 231.298C115.349 231.342 115.616 231.145 115.662 230.857C115.705 230.569 115.508 230.303 115.22 230.257C114.53 230.152 113.828 230.057 113.116 229.973C112.828 229.941 112.566 230.146 112.534 230.435C112.498 230.726 112.707 230.986 112.995 231.02ZM104.699 230.846C105.401 230.788 106.092 230.749 106.771 230.729C107.062 230.721 107.29 230.479 107.28 230.189C107.272 229.899 107.029 229.671 106.74 229.679C106.041 229.7 105.332 229.739 104.61 229.798C104.321 229.823 104.106 230.076 104.13 230.366C104.156 230.653 104.41 230.87 104.699 230.846ZM108.847 230.723C109.551 230.739 110.243 230.775 110.923 230.823C111.213 230.842 111.464 230.626 111.485 230.337C111.506 230.047 111.287 229.795 110.998 229.774C110.299 229.724 109.591 229.688 108.871 229.672C108.58 229.664 108.339 229.895 108.333 230.185C108.328 230.476 108.556 230.716 108.847 230.723ZM141.831 230.324C142.384 229.913 142.939 229.462 143.496 228.963C143.712 228.769 143.731 228.436 143.537 228.221C143.343 228.004 143.011 227.987 142.795 228.18C142.263 228.657 141.734 229.09 141.205 229.482C140.972 229.654 140.924 229.984 141.095 230.217C141.268 230.448 141.598 230.497 141.831 230.324ZM138.736 228.025C139.004 228.701 139.307 229.354 139.643 229.986C139.78 230.243 140.099 230.34 140.354 230.202C140.612 230.065 140.709 229.747 140.571 229.491C140.254 228.895 139.968 228.274 139.713 227.637C139.606 227.367 139.299 227.237 139.03 227.343C138.762 227.45 138.629 227.757 138.736 228.025ZM187.868 230.135C188.482 229.811 189.102 229.478 189.729 229.137C189.983 228.998 190.077 228.678 189.938 228.425C189.799 228.169 189.478 228.075 189.225 228.214C188.602 228.554 187.986 228.884 187.378 229.205C187.121 229.341 187.022 229.659 187.156 229.916C187.292 230.172 187.611 230.27 187.868 230.135ZM191.574 228.113C191.592 228.103 191.61 228.093 191.628 228.082C191.88 227.94 191.969 227.618 191.826 227.366C191.684 227.114 191.362 227.025 191.11 227.167C191.092 227.177 191.076 227.186 191.057 227.196C190.804 227.338 190.716 227.66 190.856 227.912C191 228.166 191.322 228.255 191.574 228.113ZM145.034 227.469C145.508 226.975 145.984 226.446 146.461 225.879C146.648 225.657 146.619 225.324 146.398 225.137C146.174 224.95 145.843 224.979 145.655 225.2C145.193 225.75 144.732 226.264 144.274 226.742C144.074 226.952 144.08 227.285 144.29 227.485C144.501 227.687 144.834 227.679 145.034 227.469ZM137.552 223.891C137.686 224.604 137.85 225.302 138.044 225.984C138.123 226.264 138.414 226.425 138.692 226.346C138.972 226.267 139.134 225.976 139.054 225.698C138.87 225.047 138.713 224.379 138.585 223.699C138.532 223.414 138.257 223.225 137.971 223.278C137.686 223.332 137.497 223.606 137.552 223.891ZM147.79 224.214C148.157 223.729 148.526 223.222 148.898 222.69C148.946 222.62 148.993 222.549 149.04 222.481C149.2 222.239 149.134 221.914 148.891 221.753C148.649 221.593 148.324 221.659 148.162 221.901C148.121 221.963 148.078 222.026 148.034 222.089C147.672 222.608 147.31 223.104 146.952 223.579C146.776 223.81 146.821 224.14 147.052 224.316C147.285 224.491 147.614 224.445 147.79 224.214ZM137.203 219.587C137.169 220.256 137.183 220.978 137.253 221.759C137.279 222.048 137.534 222.263 137.824 222.236C138.113 222.21 138.328 221.955 138.301 221.665C138.236 220.936 138.223 220.262 138.254 219.637C138.268 219.348 138.045 219.1 137.756 219.086C137.463 219.073 137.216 219.297 137.203 219.587ZM150.033 220.479C150.295 219.687 150.39 218.927 150.35 218.215C150.334 217.924 150.086 217.702 149.797 217.718C149.506 217.734 149.284 217.983 149.3 218.273C149.333 218.864 149.25 219.491 149.033 220.148C148.943 220.422 149.092 220.721 149.368 220.812C149.645 220.904 149.942 220.754 150.033 220.479ZM138.361 215.323C138.006 215.915 137.719 216.606 137.517 217.406C137.445 217.688 137.617 217.974 137.897 218.045C138.178 218.116 138.464 217.945 138.535 217.665C138.71 216.973 138.957 216.374 139.261 215.861C139.41 215.612 139.329 215.289 139.079 215.14C138.831 214.992 138.508 215.074 138.361 215.323ZM149.74 215.989C149.388 215.31 148.899 214.706 148.319 214.198C148.1 214.007 147.767 214.028 147.576 214.248C147.386 214.466 147.408 214.798 147.627 214.99C148.108 215.412 148.514 215.911 148.807 216.474C148.941 216.731 149.258 216.831 149.515 216.698C149.774 216.564 149.874 216.247 149.74 215.989ZM141.947 212.611C141.21 212.8 140.506 213.126 139.876 213.608C139.646 213.784 139.601 214.114 139.776 214.345C139.952 214.575 140.283 214.62 140.513 214.444C141.029 214.051 141.606 213.784 142.209 213.631C142.491 213.558 142.659 213.272 142.588 212.991C142.515 212.708 142.229 212.538 141.947 212.611ZM146.402 213.002C145.707 212.706 144.965 212.516 144.216 212.444C143.927 212.417 143.67 212.629 143.642 212.918C143.615 213.207 143.826 213.464 144.116 213.492C144.758 213.553 145.395 213.718 145.99 213.972C146.257 214.087 146.566 213.96 146.681 213.694C146.794 213.424 146.669 213.115 146.402 213.002Z" fill="#0B5306"/>
<path fillRule="evenodd" clip-rule="evenodd" d="M71.6248 168.462C85.6029 168.462 96.9501 179.804 96.9501 193.775C96.9501 206.202 76.9127 239.823 72.4835 247.101C72.3007 247.4 71.9757 247.584 71.6248 247.584C71.2739 247.584 70.9488 247.401 70.7661 247.101C66.3385 239.823 46.3011 206.201 46.3011 193.775C46.2995 179.804 57.6483 168.462 71.6248 168.462Z" fill="#FFB367"/>
<path fillRule="evenodd" clip-rule="evenodd" d="M83.4684 171.399C83.4684 171.399 91.984 180.478 91.9323 191.879C91.8676 206.317 68.8952 243.951 68.8952 243.951C68.8952 243.951 70.5705 247.626 71.6232 247.586C72.6775 247.545 78.8969 236.01 78.8969 236.01C78.8969 236.01 90.8812 215.215 94.9433 202.765C98.8356 190.84 98.0222 181.767 83.4684 171.399Z" fill="#D79859"/>
<path fillRule="evenodd" clip-rule="evenodd" d="M71.6247 178.044C80.3117 178.044 87.3639 185.092 87.3639 193.775C87.3639 202.457 80.3117 209.506 71.6247 209.506C62.9393 209.506 55.8872 202.457 55.8872 193.775C55.8872 185.092 62.9393 178.044 71.6247 178.044Z" fill="white"/>
<path fillRule="evenodd" clip-rule="evenodd" d="M71.6248 182.462C77.8716 182.462 82.9428 187.531 82.9428 193.775C82.9428 200.019 77.8716 205.087 71.6248 205.087C65.3796 205.087 60.3084 200.019 60.3084 193.775C60.3084 187.531 65.3796 182.462 71.6248 182.462Z" fill="#FFE277"/>
<path fillRule="evenodd" clip-rule="evenodd" d="M80.6417 186.931C82.0906 188.832 82.9509 191.205 82.9509 193.775C82.9509 200.018 77.8797 205.087 71.6329 205.087C66.9126 205.087 62.8618 202.191 61.1671 198.082C63.2337 200.796 66.5019 202.55 70.1759 202.55C76.4227 202.55 81.4923 197.481 81.4923 191.237C81.4923 189.713 81.1899 188.26 80.6417 186.931Z" fill="#DCBE51"/>
<path fillRule="evenodd" clip-rule="evenodd" d="M71.6248 167.937C57.3572 167.937 45.774 179.514 45.774 193.775C45.774 197.55 47.5835 203.262 50.2631 209.601C56.4436 224.234 67.2118 242.27 70.3166 247.374C70.5947 247.83 71.0912 248.109 71.6248 248.109C72.1601 248.109 72.6565 247.83 72.9347 247.374C76.0395 242.27 86.8077 224.234 92.9882 209.601C95.6661 203.262 97.4772 197.549 97.4772 193.775C97.4756 179.514 85.8924 167.937 71.6248 167.937ZM71.6248 168.988C85.3119 168.988 96.4245 180.095 96.4245 193.775C96.4245 197.455 94.6295 203.015 92.0196 209.192C85.8601 223.771 75.1307 241.743 72.0356 246.828C71.9482 246.971 71.793 247.059 71.6248 247.059C71.4583 247.059 71.3014 246.971 71.2157 246.828C68.1206 241.743 57.3912 223.771 51.2317 209.192C48.6217 203.013 46.8267 197.455 46.8267 193.775C46.8251 180.095 57.9378 168.988 71.6248 168.988ZM71.6248 177.518C62.6484 177.518 55.3617 184.803 55.3617 193.775C55.3617 202.747 62.65 210.031 71.6248 210.031C80.6013 210.031 87.8895 202.747 87.8895 193.775C87.8895 184.803 80.6013 177.518 71.6248 177.518ZM71.6248 178.57C80.0208 178.57 86.8368 185.383 86.8368 193.775C86.8368 202.167 80.0208 208.979 71.6248 208.979C63.2289 208.979 56.4129 202.167 56.4129 193.775C56.4129 185.383 63.2289 178.57 71.6248 178.57ZM71.6248 181.937C65.0902 181.937 59.7829 187.242 59.7829 193.775C59.7829 200.308 65.0902 205.612 71.6248 205.612C78.1611 205.612 83.4684 200.308 83.4684 193.775C83.4684 187.242 78.1611 181.937 71.6248 181.937ZM71.6248 182.989C77.5806 182.989 82.4157 187.822 82.4157 193.775C82.4157 199.728 77.5806 204.56 71.6248 204.56C65.6707 204.56 60.834 199.728 60.834 193.775C60.834 187.822 65.6691 182.989 71.6248 182.989Z" fill="#0B5306"/>
<path fillRule="evenodd" clip-rule="evenodd" d="M348.666 123.91H317.597V145.337H348.666V123.91Z" fill="#A8D8A4"/>
<path fillRule="evenodd" clip-rule="evenodd" d="M345.992 123.91C345.992 123.91 345.992 131.991 345.992 137.291C345.992 138.487 345.516 139.633 344.671 140.478C343.825 141.323 342.677 141.799 341.482 141.799C333.472 141.799 317.597 141.799 317.597 141.799C317.597 141.799 317.597 144.077 317.597 144.976C317.597 145.071 317.634 145.162 317.701 145.228C317.769 145.296 317.859 145.333 317.955 145.333C321.173 145.333 345.089 145.333 348.309 145.333C348.506 145.333 348.666 145.172 348.666 144.976C348.666 142.409 348.666 126.832 348.666 124.265C348.666 124.17 348.629 124.081 348.563 124.013C348.495 123.945 348.404 123.908 348.309 123.908C347.58 123.91 345.992 123.91 345.992 123.91Z" fill="#7CC178"/>
<path fillRule="evenodd" clip-rule="evenodd" d="M349.192 124.482C349.192 123.876 348.7 123.386 348.096 123.386C344.237 123.386 322.028 123.386 318.17 123.386C317.563 123.386 317.073 123.877 317.073 124.482C317.073 127.517 317.073 141.731 317.073 144.766C317.073 145.372 317.565 145.862 318.17 145.862C322.028 145.862 344.237 145.862 348.096 145.862C348.702 145.862 349.192 145.37 349.192 144.766V124.482ZM335.489 135.424L333.464 137.09C333.27 137.249 332.99 137.25 332.796 137.09L330.765 135.429L318.96 144.811H347.219L335.489 135.424ZM336.32 134.74L348.141 144.199V125.014L336.32 134.74ZM318.123 144.134L329.934 134.747L318.123 125.081V144.134ZM333.129 136.004L347.187 124.437H318.993L333.129 136.004Z" fill="#0B5306"/>
</g>
<defs>
<clipPath id="clip0_1303_23329">
<rect width="398" height="306" fill="white"/>
</clipPath>
</defs>
</svg>
