<svg width="13" height="18" viewBox="0 0 13 18" fill="none" xmlns="http://www.w3.org/2000/svg">
<path d="M6.3335 3C6.3335 1.3458 4.9877 0 3.3335 0C1.76345 0 0.471217 1.21236 0.343807 2.75008C0.332407 2.88768 0.445425 3 0.583496 3H2.0835C2.22157 3 2.3303 2.88632 2.36448 2.75255C2.47488 2.32044 2.86747 2 3.3335 2C3.8849 2 4.3335 2.4486 4.3335 3V5.75C4.3335 5.88807 4.22157 6 4.0835 6H2.5835C2.44543 6 2.3335 6.11193 2.3335 6.25V7.75C2.3335 7.88807 2.44543 8 2.5835 8H4.0835C4.22157 8 4.3335 8.11193 4.3335 8.25V14C4.3335 16.2056 6.1279 18 8.3335 18C10.5391 18 12.3335 16.2056 12.3335 14C12.3335 12.8972 11.4363 12 10.3335 12H8.5835C8.44543 12 8.3335 12.1119 8.3335 12.25V13.75C8.3335 13.8881 8.44543 14 8.5835 14H10.0835C10.2216 14 10.3351 14.1125 10.318 14.2495C10.1948 15.235 9.35182 16 8.3335 16C7.2307 16 6.3335 15.1028 6.3335 14V8.25C6.3335 8.11193 6.44543 8 6.5835 8H12.0835C12.2216 8 12.3335 7.88807 12.3335 7.75V6.25C12.3335 6.11193 12.2216 6 12.0835 6H6.5835C6.44543 6 6.3335 5.88807 6.3335 5.75V3Z" fill="#595959"/>
</svg>
