<svg width="20" height="20" viewBox="0 0 20 20" fill="none" xmlns="http://www.w3.org/2000/svg">
<path d="M19.6 19.6V12.568C19.6 9.11205 18.856 6.47205 14.824 6.47205C12.88 6.47205 11.584 7.52805 11.056 8.53605H11.008V6.78405H7.19202V19.6H11.176V13.24C11.176 11.56 11.488 9.95205 13.552 9.95205C15.592 9.95205 15.616 11.848 15.616 13.336V19.576H19.6V19.6Z" fill="#434343"/>
<path d="M0.712036 6.78406H4.69604V19.6001H0.712036V6.78406Z" fill="#434343"/>
<path d="M2.70402 0.400024C1.43202 0.400024 0.400024 1.43202 0.400024 2.70402C0.400024 3.97602 1.43202 5.03202 2.70402 5.03202C3.97602 5.03202 5.00802 3.97602 5.00802 2.70402C5.00802 1.43202 3.97602 0.400024 2.70402 0.400024Z" fill="#434343"/>
</svg>
